<?xml version="1.0" encoding="UTF-8"?><svg id="Layer_2" xmlns="http://www.w3.org/2000/svg" viewBox="0 0 5.82 5.82"><defs><style>.cls-1{fill:none;stroke:#13d1d1;stroke-width:.86px;}.cls-1,.cls-2{stroke-miterlimit:10;}.cls-2{stroke:#fff;stroke-width:.02px;}.cls-2,.cls-3{fill:#13d1d1;}</style></defs><g id="Layer_1-2"><g><g><polygon class="cls-2" points="2.25 4.28 3.38 4.35 3.05 5.81 2.38 5.76 2.25 4.28"/><polygon class="cls-2" points="1.53 3.53 2.34 4.32 1.15 5.22 .67 4.75 1.53 3.53"/><polygon class="cls-2" points="1.45 2.5 1.57 3.62 .08 3.55 .01 2.88 1.45 2.5"/><polygon class="cls-2" points="2.06 1.66 1.43 2.59 .34 1.58 .71 1.03 2.06 1.66"/><polygon class="cls-2" points="3.06 1.4 1.98 1.71 1.79 .24 2.43 .05 3.06 1.4"/><polygon class="cls-2" points="4 1.85 2.97 1.4 3.77 .14 4.38 .41 4 1.85"/><polygon class="cls-2" points="4.42 2.8 3.93 1.79 5.35 1.35 5.64 1.95 4.42 2.8"/><polygon class="cls-2" points="4.14 3.8 4.41 2.7 5.78 3.28 5.62 3.93 4.14 3.8"/><polygon class="cls-2" points="3.28 4.38 4.2 3.72 4.88 5.04 4.34 5.43 3.28 4.38"/></g><circle class="cls-1" cx="2.91" cy="2.91" r="1.68"/><circle class="cls-3" cx="2.91" cy="2.91" r=".68"/></g></g></svg>